<?xml version="1.0" encoding="UTF-8" standalone="no"?>
<!-- Created with Inkscape (http://www.inkscape.org/) -->

<svg
   width="210mm"
   height="297mm"
   viewBox="0 0 210 297"
   version="1.1"
   id="svg5"
   sodipodi:docname="personal_logo.svg"
   inkscape:version="1.1.1 (3bf5ae0d25, 2021-09-20, custom)"
   xmlns:inkscape="http://www.inkscape.org/namespaces/inkscape"
   xmlns:sodipodi="http://sodipodi.sourceforge.net/DTD/sodipodi-0.dtd"
   xmlns="http://www.w3.org/2000/svg"
   xmlns:svg="http://www.w3.org/2000/svg">
  <sodipodi:namedview
     id="namedview7"
     pagecolor="#505050"
     bordercolor="#ffffff"
     borderopacity="1"
     inkscape:pageshadow="0"
     inkscape:pageopacity="0"
     inkscape:pagecheckerboard="1"
     inkscape:document-units="mm"
     showgrid="false"
     showguides="true"
     inkscape:guide-bbox="true"
     inkscape:zoom="1.2595945"
     inkscape:cx="414.81603"
     inkscape:cy="583.91806"
     inkscape:window-width="1600"
     inkscape:window-height="867"
     inkscape:window-x="0"
     inkscape:window-y="33"
     inkscape:window-maximized="1"
     inkscape:current-layer="layer1">
    <sodipodi:guide
       position="148.11004,148.88996"
       orientation="0,-1"
       id="guide974" />
  </sodipodi:namedview>
  <defs
     id="defs2" />
  <g
     inkscape:label="Layer 1"
     inkscape:groupmode="layer"
     id="layer1">
    <path
       id="text627-3-9-7-2"
       style="font-style:normal;font-weight:normal;font-size:50.8px;line-height:1.25;font-family:sans-serif;fill:#373b41;fill-opacity:1;stroke:none;stroke-width:0.178076"
       d="m 122.12327,116.17848 c -5.26536,0 -9.21991,1.08275 -11.86398,3.24815 -2.62129,2.16541 -3.93194,5.56182 -3.93194,10.18895 0,0.5066 0.0195,0.99698 0.0567,1.47331 0.37002,-3.49261 1.63965,-6.14017 3.81507,-7.93726 2.64408,-2.16541 6.59897,-3.24816 11.86433,-3.24816 5.58448,0 9.64169,1.07111 12.17179,3.21372 2.24134,1.86112 3.49807,4.5048 3.7716,7.92961 0.0763,-0.71642 0.11791,-1.46481 0.11791,-2.25169 0,-4.14846 -1.27643,-7.28274 -3.82933,-9.40256 -2.53011,-2.14262 -6.58767,-3.21407 -12.17215,-3.21407 z m -0.88065,14.93928 v 3.72708 h 1.8465 v -3.725 h -1.78633 v -0.002 z" />
    <path
       id="text627-3-5-1"
       style="font-style:normal;font-weight:normal;font-size:50.8px;line-height:1.25;font-family:sans-serif;fill:#373b41;fill-opacity:1;stroke:none;stroke-width:0.178076"
       d="m 38.14745,114.70414 c -2.188201,0 -4.091561,0.0455 -5.709918,0.13668 -1.595563,0.0684 -3.077324,0.14812 -4.44495,0.23929 -1.344832,0.0912 -2.700999,0.15962 -4.068625,0.20521 -1.344831,0.0456 -2.860466,0.0343 -4.547204,-0.0341 -0.227938,0.54705 -0.399044,1.20785 -0.513013,1.98284 -0.113969,0.75219 -0.182411,1.53859 -0.205205,2.35916 0,0.69652 0.03693,1.35617 0.106428,1.98319 0.02294,-0.19396 0.04848,-0.38601 0.07721,-0.57562 0.113969,-0.77499 0.284728,-1.43579 0.512665,-1.98284 1.686738,0.0684 3.202721,0.0797 4.547553,0.0341 1.367625,-0.0456 2.723793,-0.11403 4.068625,-0.20521 1.367625,-0.0912 2.849039,-0.17091 4.444602,-0.23929 1.618357,-0.0912 3.521716,-0.13669 5.709917,-0.13669 3.21392,0 5.926604,0.28472 8.137598,0.85456 2.210993,0.54705 3.886096,1.56135 5.025784,3.04295 0.890438,1.11741 1.438477,2.60416 1.646858,4.45712 0.07838,-0.61473 0.1186,-1.26971 0.1186,-1.96684 0,-2.71245 -0.581064,-4.79786 -1.743546,-6.25666 -1.139688,-1.4816 -2.815138,-2.49625 -5.026132,-3.0433 -2.210995,-0.56984 -4.92333,-0.85455 -8.13725,-0.85455 z m -2.722967,14.02385 v 2.29064 h 2.085787 v -2.29064 z m -14.038112,1.98249 c -0.05606,0.44099 -0.132538,0.82897 -0.231986,1.15714 -0.227938,0.7294 -0.512651,1.2653 -0.854557,1.60721 -0.319113,0.31911 -0.649687,0.54702 -0.991593,0.68379 -0.159556,0.47866 -0.284802,1.08266 -0.375977,1.81206 -0.06838,0.7294 -0.09131,1.49287 -0.06852,2.29065 0.01243,0.42263 0.03975,0.8378 0.0793,1.24688 0.08786,-0.62512 0.201541,-1.15659 0.343631,-1.58286 0.341907,-0.13677 0.67248,-0.36468 0.991593,-0.68379 0.341906,-0.34191 0.626619,-0.87781 0.854557,-1.60721 0.227938,-0.75219 0.341892,-1.80071 0.341892,-3.14555 0,-0.67124 -0.03043,-1.26151 -0.08834,-1.77832 z m 14.75633,5.57357 -0.718218,0.6497 c 0.592638,0.70661 1.310588,1.2538 2.153958,1.6413 0.843369,0.3647 1.891893,0.56968 3.145549,0.61526 0.122713,0.38178 0.21332,0.80021 0.27894,1.24723 0.01749,-0.1207 0.03661,-0.23978 0.05043,-0.36415 0.08437,-0.60743 0.118159,-1.21472 0.102603,-1.82215 -1.058333,-0.0375 -1.933732,-0.14529 -2.620017,-0.32589 -0.866163,-0.25073 -1.663847,-0.79793 -2.393247,-1.6413 z" />
    <path
       id="text627-3-5-6-7"
       style="font-style:normal;font-weight:normal;font-size:50.8px;line-height:1.25;font-family:sans-serif;fill:#373b41;fill-opacity:1;stroke:none;stroke-width:0.178076"
       d="m 62.592587,111.34399 c -1.800707,0 -3.464865,0.30764 -4.992047,0.92307 -1.504388,0.61544 -2.712379,1.49285 -3.624129,2.63254 -0.888957,1.11689 -1.333485,2.43884 -1.333485,3.96602 0,0.82804 0.05747,1.62295 0.170075,2.3856 0.184133,-0.9948 0.589484,-1.88771 1.218015,-2.67741 0.911751,-1.13968 2.119741,-2.0171 3.62413,-2.63253 1.527181,-0.61543 3.190992,-0.92308 4.991699,-0.92308 1.230863,0 2.438854,0.15947 3.62413,0.47858 1.185275,0.29632 2.25673,0.76343 3.214067,1.40166 0.957338,0.61543 1.720801,1.40182 2.290645,2.35916 0.321634,0.52748 0.549255,1.1078 0.689351,1.73694 0.07314,-0.68031 0.110949,-1.3894 0.110949,-2.12892 0,-1.25365 -0.284712,-2.34769 -0.854556,-3.28223 -0.569844,-0.95734 -1.333656,-1.74373 -2.290994,-2.35917 -0.957338,-0.63822 -2.028443,-1.10533 -3.213719,-1.40165 -1.185275,-0.31911 -2.393268,-0.47858 -3.624131,-0.47858 z m -6.023984,21.18794 c -0.251966,0.26311 -0.48966,0.5725 -0.711609,0.93316 -0.54705,0.86617 -0.820821,1.93762 -0.820821,3.21407 0,0.60709 0.101462,1.19648 0.302591,1.76859 0.135596,-0.47762 0.324211,-0.91534 0.572486,-1.30844 0.54705,-0.88896 1.185269,-1.48166 1.914669,-1.77798 0.706606,0.7066 1.641175,1.26509 2.803657,1.67537 1.162482,0.41029 2.279447,0.59269 3.350754,0.5471 -1.185275,-0.43308 -2.438779,-1.0713 -3.760817,-1.91467 -1.296329,-0.84147 -2.513422,-1.88727 -3.65091,-3.1372 z m 12.841662,0.37563 c -0.471705,0.76705 -0.947836,1.50706 -1.429479,2.21448 0.752194,0.50146 1.35619,1.16261 1.812065,1.98318 0.178421,0.29737 0.323536,0.62161 0.435451,0.97281 0.150867,-0.52267 0.228161,-1.07969 0.228161,-1.67259 0,-1.18528 -0.239549,-2.17665 -0.718218,-2.97443 -0.101594,-0.18287 -0.21167,-0.35643 -0.32798,-0.52345 z" />
    <text
       xml:space="preserve"
       style="font-style:normal;font-weight:normal;font-size:34.1906px;line-height:1.25;font-family:sans-serif;fill:#198844;fill-opacity:1;stroke:none;stroke-width:0.178076"
       x="52.288605"
       y="146.51695"
       id="text627-3-5-6"><tspan
         sodipodi:role="line"
         style="font-style:normal;font-variant:normal;font-weight:normal;font-stretch:normal;font-size:34.1906px;font-family:Oi;-inkscape-font-specification:Oi;fill:#198844;fill-opacity:1;stroke-width:0.178076"
         x="52.288605"
         y="146.51695"
         id="tspan629-7-5-2">!</tspan></text>
    <path
       id="text627-3-93"
       style="font-style:normal;font-weight:normal;font-size:50.8px;line-height:1.25;font-family:sans-serif;fill:#373b41;fill-opacity:1;stroke:none;stroke-width:0.178356;stroke-miterlimit:4;stroke-dasharray:none"
       d="m 154.52897,114.11499 c -5.51609,0 -9.68726,1.17412 -12.51368,3.52187 -2.82643,2.32497 -4.23975,5.90343 -4.23975,10.7357 0,1.17485 0.0895,2.27693 0.26816,3.30624 0.0305,-4.75239 1.44107,-8.28067 4.23662,-10.58023 2.82642,-2.34776 6.99794,-3.52153 12.51403,-3.52153 5.88079,0 10.18849,1.13955 12.92374,3.41892 2.03065,1.67529 3.30693,3.87255 3.83003,6.59056 0.003,-0.14737 0.008,-0.29353 0.008,-0.44484 0,-4.14846 -1.36746,-7.35084 -4.10271,-9.60742 -2.73525,-2.27938 -7.0433,-3.41927 -12.92409,-3.41927 z m 1.16237,15.42863 v 0.94882 h -1.82042 v 3.46205 h 2.08579 v -4.41087 z m 14.90623,6.86463 c -0.40717,0.80589 -0.87584,1.49393 -1.40896,2.05936 -0.75219,0.79778 -1.50471,1.42471 -2.25691,1.88058 v 2.73514 h 1.06011 l 0.0341,-2.97478 c 0.56984,-0.11397 1.17384,-0.1937 1.81206,-0.23929 0.62948,-0.045 1.21424,-0.0115 1.75503,0.0988 -0.005,-1.12733 -0.0854,-2.27981 -0.24242,-3.45788 -0.24166,-0.0504 -0.49355,-0.0827 -0.753,-0.10191 z m -13.44406,5.51272 c -0.59962,0.18935 -1.10425,0.49597 -1.51817,0.91472 0.0592,0.45616 0.17674,0.87539 0.35302,1.25767 0.0462,-0.2194 0.10337,-0.4206 0.17356,-0.59997 0.22793,-0.54705 0.55851,-1.07096 0.99159,-1.57242 z" />
    <text
       xml:space="preserve"
       style="font-style:normal;font-weight:normal;font-size:34.1906px;line-height:1.25;font-family:sans-serif;fill:#3971ed;fill-opacity:1;stroke:none;stroke-width:0.178076"
       x="137.5703"
       y="146.62682"
       id="text627-3"><tspan
         sodipodi:role="line"
         style="font-style:normal;font-variant:normal;font-weight:normal;font-stretch:normal;font-size:34.1906px;font-family:Oi;-inkscape-font-specification:Oi;fill:#3971ed;fill-opacity:1;stroke-width:0.178076"
         x="137.5703"
         y="146.62682"
         id="tspan629-7">Q</tspan></text>
    <path
       id="text627-3-9-0"
       style="font-style:normal;font-weight:normal;font-size:50.8px;line-height:1.25;font-family:sans-serif;fill:#373b41;fill-opacity:1;stroke:none;stroke-width:0.178076"
       d="m 97.160594,117.11129 c -2.985982,0 -5.345161,0.62693 -7.077487,1.88059 -0.966528,0.68674 -1.758748,1.4978 -2.377595,2.43289 0.294438,-0.0131 0.613082,-0.0262 0.868121,-0.0393 -0.296319,0.31911 -0.6156,0.86631 -0.957507,1.64129 -0.319112,0.7522 -0.581244,1.54988 -0.786388,2.39325 -0.18235,0.84337 -0.239153,1.58425 -0.170772,2.22248 0.615432,-2.02865 1.789202,-3.65859 3.521528,-4.88945 1.732325,-1.25365 4.091504,-1.88023 7.077487,-1.88023 1.299244,0 2.404919,0.11395 3.316669,0.34189 0.93454,0.20514 1.69801,0.59252 2.29064,1.16236 0.61544,0.56985 1.09419,1.40175 1.43609,2.49585 0.10138,0.2969 0.18355,0.59654 0.25042,0.89804 0.0489,-0.60001 0.0823,-1.19606 0.0963,-1.78737 0.0228,-0.98014 -0.12538,-1.93764 -0.44449,-2.87218 -0.34191,-1.0941 -0.82031,-1.926 -1.43574,-2.49585 -0.59264,-0.56984 -1.35645,-0.95722 -2.291,-1.16236 -0.911746,-0.22794 -2.017074,-0.3419 -3.316319,-0.3419 z m -24.002033,0.23929 c -0.273525,0.66102 -0.467213,1.50422 -0.581182,2.52994 -0.09117,1.02572 -0.102467,2.06295 -0.03408,3.11146 0.02931,0.32972 0.0682,0.64006 0.111644,0.94151 0.0072,-0.0971 0.01156,-0.19458 0.02017,-0.29146 0.113969,-1.02572 0.307659,-1.86891 0.581184,-2.52993 1.071306,0.13676 2.279297,0.25071 3.624129,0.34189 1.344832,0.0684 2.723929,0.1026 4.137142,0.1026 1.413213,0 2.803602,-0.0116 4.171228,-0.0344 0.58255,-0.0194 1.098987,-0.0387 1.594687,-0.0581 0.197351,-0.77113 0.441,-1.50521 0.735259,-2.19882 0.341906,-0.77499 0.660841,-1.32218 0.95716,-1.64129 -0.888957,0.0456 -2.017214,0.0914 -3.38484,0.13703 -1.367625,0.0228 -2.758014,0.0341 -4.171227,0.0341 -1.413213,0 -2.792311,-0.0342 -4.137142,-0.1026 -1.344832,-0.0912 -2.552823,-0.20513 -3.62413,-0.3419 z m 31.280899,14.3734 c -0.0447,0.59973 -0.0699,1.19947 -0.0699,1.7992 0,1.04851 0.10266,1.88041 0.30781,2.49585 0.20514,0.59263 0.46727,1.03716 0.78639,1.33348 0.3419,0.29632 0.67248,0.50165 0.99159,0.61562 0.0962,0.31009 0.1717,0.65912 0.22781,1.04446 0.0456,-0.77005 0.0513,-1.54008 0.0164,-2.31013 -0.0228,-1.00292 -0.13675,-1.83483 -0.34189,-2.49585 -0.31911,-0.11397 -0.64934,-0.31929 -0.99125,-0.61561 -0.31911,-0.29632 -0.58124,-0.7405 -0.78638,-1.33314 -0.0542,-0.1625 -0.10065,-0.34119 -0.14052,-0.53388 z m -29.592652,0.0341 c -0.106283,0.58627 -0.279657,1.05198 -0.525534,1.38844 -0.433081,0.56985 -0.911832,0.92335 -1.436088,1.06011 -0.18235,0.66102 -0.296305,1.49293 -0.341892,2.49585 -0.04559,1.00293 -0.02301,2.00594 0.06817,3.00886 0.01552,0.13659 0.03488,0.26429 0.05252,0.39581 0.05478,-0.84161 0.158825,-1.55986 0.318591,-2.139 0.524257,-0.13677 1.003006,-0.49027 1.436087,-1.06011 0.433081,-0.59264 0.6497,-1.57272 0.6497,-2.94035 0,-0.89107 -0.07423,-1.62657 -0.221551,-2.20961 z m 15.338903,1.14985 v 0.95681 c -0.136762,0.79778 -0.228135,1.74364 -0.273723,2.83774 -0.02279,1.0941 1.36e-4,2.15392 0.06852,3.17964 0.01099,0.16123 0.02365,0.30928 0.03582,0.46049 0.0472,-1.04132 0.135238,-1.9491 0.266767,-2.71636 v -4.71832 z m -1.167583,1.52791 v 3.19041 c 0.07911,0.39554 0.141284,0.8279 0.186771,1.29627 0.02299,-0.72403 0.02075,-1.46329 -0.01078,-2.22004 -0.0176,-0.84458 -0.0769,-1.59864 -0.175991,-2.26664 z" />
    <text
       xml:space="preserve"
       style="font-style:normal;font-weight:normal;font-size:34.1906px;line-height:1.25;font-family:sans-serif;fill:#fba922;fill-opacity:1;stroke:none;stroke-width:0.178076"
       x="105.80759"
       y="146.52481"
       id="text627-3-9-7"><tspan
         sodipodi:role="line"
         style="font-style:normal;font-variant:normal;font-weight:normal;font-stretch:normal;font-size:34.1906px;font-family:Oi;-inkscape-font-specification:Oi;fill:#fba922;fill-opacity:1;stroke-width:0.178076"
         x="105.80759"
         y="146.52481"
         id="tspan629-7-2-0">o</tspan></text>
    <text
       xml:space="preserve"
       style="font-style:normal;font-weight:normal;font-size:34.1906px;line-height:1.25;font-family:sans-serif;fill:#a36ac7;fill-opacity:1;stroke:none;stroke-width:0.178076"
       x="18.323957"
       y="147.18738"
       id="text627-3-5"><tspan
         sodipodi:role="line"
         style="font-style:normal;font-variant:normal;font-weight:normal;font-stretch:normal;font-size:34.1906px;font-family:Oi;-inkscape-font-specification:Oi;fill:#a36ac7;fill-opacity:1;stroke-width:0.178076"
         x="18.323957"
         y="147.18738"
         id="tspan629-7-5">P</tspan></text>
    <text
       xml:space="preserve"
       style="font-style:normal;font-weight:normal;font-size:34.1906px;line-height:1.25;font-family:sans-serif;fill:#cc342b;fill-opacity:1;stroke:none;stroke-width:0.178076"
       x="72.366478"
       y="147.36641"
       id="text627-3-9"><tspan
         sodipodi:role="line"
         style="font-style:normal;font-variant:normal;font-weight:normal;font-stretch:normal;font-size:34.1906px;font-family:Oi;-inkscape-font-specification:Oi;fill:#cc342b;fill-opacity:1;stroke-width:0.178076"
         x="72.366478"
         y="147.36641"
         id="tspan629-7-2">n</tspan></text>
  </g>
</svg>
